<svg id="Layer_1" data-name="Layer 1" xmlns="http://www.w3.org/2000/svg" xmlns:xlink="http://www.w3.org/1999/xlink" viewBox="0 0 400 300" width="406" height="306" class="illustration styles_illustrationTablet__1DWOa"><defs><clipPath id="clip-path"><path d="M179.82,68.48,178.28,67,169,53.21H87.15L72.49,156.9H212.3V103.28C212.3,84,199,69.55,179.82,68.48Z" fill="none"></path></clipPath></defs><path d="M55.31,111.42S.66,234.86,144.55,236.59s209.67-17.23,210.32-80S303.7,35.13,213.37,34.48,74.19,57.45,55.31,111.42Z" fill="#e6e6e6" opacity="0.3"></path><path d="M267.69,68.4H177.42l1.24,88.5H302.57V103.28A34.88,34.88,0,0,0,267.69,68.4Z" fill="#68e1fd"></path><path d="M177.42,68.4h0a34.88,34.88,0,0,1,34.88,34.88V156.9a0,0,0,0,1,0,0H142.54a0,0,0,0,1,0,0V103.28A34.88,34.88,0,0,1,177.42,68.4Z" fill="#24285b"></path><path d="M177.42,156.9h0a34.88,34.88,0,0,1,34.88,34.88V245.4a0,0,0,0,1,0,0H142.54a0,0,0,0,1,0,0V191.78A34.88,34.88,0,0,1,177.42,156.9Z" transform="translate(354.84 402.3) rotate(180)" fill="#68e1fd"></path><path d="M177.42,156.9h0a34.88,34.88,0,0,1,34.88,34.88V245.4a0,0,0,0,1,0,0H142.54a0,0,0,0,1,0,0V191.78A34.88,34.88,0,0,1,177.42,156.9Z" transform="translate(354.84 402.3) rotate(180)" opacity="0.09"></path><path d="M242.52,29.18h0a2,2,0,0,1,2,2v73.65a0,0,0,0,1,0,0h-4.09a0,0,0,0,1,0,0V31.22a2,2,0,0,1,2-2Z" fill="#68e1fd"></path><path d="M242.52,29.18h0a2,2,0,0,1,2,2v73.65a0,0,0,0,1,0,0h-4.09a0,0,0,0,1,0,0V31.22a2,2,0,0,1,2-2Z" fill="#fff" opacity="0.44"></path><circle cx="242.64" cy="104.87" r="7.78" fill="#ffd200"></circle><polygon points="244.56 31.22 263.71 31.22 263.71 38.76 244.56 43.61 244.56 31.22" fill="#ffd200"></polygon><rect x="225.5" y="156.9" width="33.7" height="12.25" fill="#24285b"></rect><rect x="234.01" y="169.15" width="16.4" height="97.48" fill="#68e1fd"></rect><rect x="234.01" y="169.15" width="16.4" height="97.48" fill="#fff" opacity="0.44"></rect><polygon points="234.01 169.15 234.01 201.82 250.41 191.37 250.41 169.15 234.01 169.15" opacity="0.09"></polygon><g clip-path="url(#clip-path)"><rect x="86.03" y="97.98" width="85.42" height="48.22" transform="translate(20.2 -18.26) rotate(8.8)" fill="#fff"></rect><polygon points="90.22 91.73 129.09 131.31 174.64 104.8 90.22 91.73" fill="#ffd200"></polygon><polygon points="122.53 96.73 126.58 146.15 144.66 149.3 139.56 99.08 122.53 96.73" opacity="0.09"></polygon><rect x="131.93" y="67.62" width="85.42" height="48.22" transform="translate(24.9 -36.68) rotate(12.9)" fill="#fff"></rect><polygon points="138.39 58.69 174.33 100.95 221.65 77.77 138.39 58.69" fill="#ffd200"></polygon><rect x="136.23" y="108.68" width="85.42" height="48.22" fill="#fff"></rect><polygon points="136.23 108.68 180.7 141.85 221.65 108.68 136.23 108.68" fill="#ffd200"></polygon><path d="M177.43,68.4l-11.86,88.5h56.37S258.11,65.46,177.43,68.4Z" opacity="0.09"></path></g><rect x="112.13" y="135.11" width="85.42" height="48.22" transform="translate(-46.96 66.47) rotate(-21.12)" fill="#fff"></rect><polygon points="106.31 152.12 159.75 167.03 186 121.34 106.31 152.12" fill="#ffd200"></polygon><polygon points="169.48 127.72 171.21 178.74 203.37 166.32 186 121.34 169.48 127.72" opacity="0.09"></polygon></svg>